<svg xmlns="http://www.w3.org/2000/svg" viewBox="0 0 300 400">
  <!-- 하늘 배경 -->
  <rect width="300" height="400" fill="#87CEEB"/>
  
  <!-- 태양 -->
  <circle cx="250" cy="60" r="30" fill="#FFD700" opacity="0.8"/>
  <circle cx="250" cy="60" r="35" fill="#FFD700" opacity="0.3"/>
  
  <!-- 구름들 -->
  <path d="M50 80 Q80 60 110 80" fill="none" stroke="white" stroke-width="3"/>
  <path d="M200 100 Q230 80 260 100" fill="none" stroke="white" stroke-width="3"/>
  
  <!-- 물 표현 -->
  <rect x="0" y="150" width="300" height="250" fill="#1E90FF"/>
  
  <!-- 물결 효과 -->
  <path d="M0 160 Q75 140 150 160 Q225 180 300 160" fill="#4169E1" opacity="0.3"/>
  <path d="M0 180 Q75 160 150 180 Q225 200 300 180" fill="#4169E1" opacity="0.3"/>
  <path d="M0 200 Q75 180 150 200 Q225 220 300 200" fill="#4169E1" opacity="0.2"/>
  
  <!-- 낚시배 -->
  <path d="M60 140 L120 140 L130 160 L50 160 Z" fill="#8B4513"/>
  <rect x="85" y="100" width="5" height="40" fill="#8B4513"/>
  
  <!-- 낚시꾼 -->
  <circle cx="90" cy="130" r="8" fill="#000"/> <!-- 머리 -->
  <rect x="87" y="138" width="6" height="15" fill="#000"/> <!-- 몸통 -->
  <path d="M90 145 L100 155" stroke="#000" stroke-width="2"/> <!-- 팔 -->
  
  <!-- 낚싯대 -->
  <path d="M100 155 L130 120" stroke="#000" stroke-width="1"/>
  <path d="M130 120 L160 180" stroke="#666" stroke-width="0.5"/>
  
  <!-- 물고기들 -->
  <!-- 큰 물고기 -->
  <path d="M200 300 Q220 290 240 300 L200 315 L240 330 Q220 320 200 330 Z" fill="#FF6B6B"/>
  <circle cx="215" cy="305" r="2" fill="#000"/>
  <path d="M240 300 L250 315 L240 330" fill="#FF6B6B"/>
  
  <!-- 작은 물고기들 -->
  <path d="M50 250 Q60 245 70 250 L50 257 L70 264 Q60 259 50 264 Z" fill="#98FB98"/>
  <circle cx="57" cy="252" r="1" fill="#000"/>
  <path d="M70 250 L75 257 L70 264" fill="#98FB98"/>
  
  <path d="M150 350 Q160 345 170 350 L150 357 L170 364 Q160 359 150 364 Z" fill="#DDA0DD"/>
  <circle cx="157" cy="352" r="1" fill="#000"/>
  <path d="M170 350 L175 357 L170 364" fill="#DDA0DD"/>
  
  <!-- 수초 -->
  <path d="M20 400 C20 380 30 370 20 350" fill="none" stroke="#2E8B57" stroke-width="2"/>
  <path d="M40 400 C40 370 50 360 40 340" fill="none" stroke="#2E8B57" stroke-width="2"/>
  <path d="M270 400 C270 380 280 370 270 350" fill="none" stroke="#2E8B57" stroke-width="2"/>
  <path d="M250 400 C250 370 260 360 250 340" fill="none" stroke="#2E8B57" stroke-width="2"/>
  
  <!-- 거품 효과 -->
  <circle cx="180" cy="200" r="2" fill="white" opacity="0.6"/>
  <circle cx="190" cy="220" r="1.5" fill="white" opacity="0.6"/>
  <circle cx="170" cy="240" r="2" fill="white" opacity="0.6"/>
  <circle cx="185" cy="260" r="1.5" fill="white" opacity="0.6"/>
  
  <!-- 물방울 튀는 효과 -->
  <circle cx="160" cy="180" r="1" fill="white" opacity="0.8"/>
  <circle cx="162" cy="178" r="0.8" fill="white" opacity="0.8"/>
  <circle cx="158" cy="179" r="1.2" fill="white" opacity="0.8"/>
</svg>