<svg viewBox="0 0 300 400" xmlns="http://www.w3.org/2000/svg">
  <!-- 하늘 배경 -->
  <rect width="300" height="400" fill="#87CEEB"/>
  
  <!-- 태양 -->
  <circle cx="250" cy="80" r="30" fill="#FFD700"/>
  
  <!-- 구름들 -->
  <g fill="#FFFFFF">
    <path d="M60,100 Q70,90 80,100 Q90,90 100,100 Q110,90 120,100 Q120,120 60,120 Q60,100 60,100"/>
    <path d="M200,150 Q210,140 220,150 Q230,140 240,150 Q240,170 200,170 Q200,150 200,150"/>
  </g>
  
  <!-- 산들 -->
  <path d="M0,250 L120,150 L200,220 L300,180 L300,400 L0,400 Z" fill="#4A754A"/>
  <path d="M0,280 L100,200 L180,250 L300,200 L300,400 L0,400 Z" fill="#2F4F2F"/>
  
  <!-- 나무들 -->
  <g transform="translate(50,200)">
    <rect x="8" y="20" width="4" height="20" fill="#654321"/>
    <polygon points="0,20 20,20 10,0" fill="#228B22"/>
    <polygon points="2,12 18,12 10,-5" fill="#228B22"/>
  </g>
  
  <g transform="translate(250,220)">
    <rect x="8" y="20" width="4" height="20" fill="#654321"/>
    <polygon points="0,20 20,20 10,0" fill="#228B22"/>
    <polygon points="2,12 18,12 10,-5" fill="#228B22"/>
  </g>
  
  <!-- 등산로 -->
  <path d="M100,400 Q150,350 180,380 Q210,410 250,350" 
        stroke="#B8860B" 
        fill="none" 
        stroke-width="5"/>
        
  <!-- 텐트 -->
  <g transform="translate(150,300)">
    <path d="M0,40 L25,0 L50,40 Z" fill="#FF6B6B"/>
    <path d="M20,40 L25,0 L30,40" fill="#CC5555"/>
  </g>
</svg>